<svg width="67" height="20" viewBox="0 0 67 20" fill="none" xmlns="http://www.w3.org/2000/svg">
<path d="M4.965 19.65H0V2.07H9.90001V5.895L4.965 5.595V9.675H9.01501V13.395L4.965 13.095V19.65Z" fill="#0A0600"/>
<path d="M11.1182 19.65V2.685L10.2182 2.145V0.750001L15.0332 0H16.0082V19.65H11.1182Z" fill="#0A0600"/>
<path d="M24.7418 11.895C24.7418 10.625 24.6768 9.72501 24.5468 9.19501C24.4168 8.665 24.1768 8.4 23.8268 8.4C23.5268 8.4 23.2818 8.455 23.0918 8.565C22.9018 8.665 22.7618 8.83001 22.6718 9.06001C22.5818 9.28001 22.5218 9.51 22.4918 9.75001C22.4718 9.98001 22.4618 10.275 22.4618 10.635V11.895H24.7418ZM23.5418 19.965C22.4218 19.965 21.4468 19.795 20.6168 19.455C19.7968 19.115 19.1468 18.64 18.6668 18.03C18.1968 17.42 17.8518 16.735 17.6318 15.975C17.4118 15.205 17.3018 14.35 17.3018 13.41C17.3018 11.17 17.8718 9.47501 19.0118 8.32501C20.1518 7.175 21.7468 6.6 23.7968 6.6C25.7668 6.6 27.1768 7.065 28.0268 7.995C28.8768 8.91501 29.3018 10.4 29.3018 12.45V14.115H22.4468V14.4C22.4468 14.99 22.5068 15.475 22.6268 15.855C22.7568 16.235 22.9418 16.515 23.1818 16.695C23.4218 16.875 23.6668 16.995 23.9168 17.055C24.1668 17.115 24.4718 17.145 24.8318 17.145C25.1818 17.145 25.5568 17.1 25.9568 17.01C26.3668 16.92 26.7768 16.78 27.1868 16.59C27.6068 16.4 27.9568 16.175 28.2368 15.915L29.1218 17.43C28.7518 18.03 28.2068 18.535 27.4868 18.945C26.7768 19.345 26.0918 19.615 25.4318 19.755C24.7718 19.895 24.1418 19.965 23.5418 19.965Z" fill="#0A0600"/>
<path d="M33.7467 19.65H29.6667L32.9217 13.395L29.4417 6.9H35.2167L36.5367 10.29L38.0967 6.9H42.1917L38.8317 12.99L42.4017 19.65H36.7167L35.2167 16.095L33.7467 19.65Z" fill="#0A0600"/>
<path d="M50.5664 17.655C50.5064 17.795 50.3814 17.98 50.1914 18.21C50.0114 18.44 49.7714 18.695 49.4714 18.975C49.1714 19.245 48.8014 19.475 48.3614 19.665C47.9214 19.865 47.4764 19.965 47.0264 19.965C45.6164 19.965 44.6064 19.545 43.9964 18.705C43.3964 17.865 43.0964 16.465 43.0964 14.505V9.16501L42.5714 8.625V6.9H48.0164V15.45C48.0064 15.9 48.0814 16.235 48.2414 16.455C48.4014 16.665 48.6914 16.77 49.1114 16.77C49.1714 16.77 49.2264 16.77 49.2764 16.77C49.3264 16.76 49.3764 16.75 49.4264 16.74C49.4764 16.72 49.5164 16.705 49.5464 16.695C49.5864 16.685 49.6314 16.67 49.6814 16.65C49.7314 16.62 49.7714 16.595 49.8014 16.575C49.8314 16.555 49.8714 16.53 49.9214 16.5C49.9714 16.46 50.0064 16.43 50.0264 16.41C50.0564 16.39 50.0964 16.36 50.1464 16.32C50.2064 16.27 50.2514 16.235 50.2814 16.215V9.16501L49.4714 8.625V6.9H55.1864V19.65H51.0314L50.5664 17.655Z" fill="#0A0600"/>
<path d="M61.195 19.965C60.255 19.965 59.305 19.81 58.345 19.5C57.385 19.18 56.77 18.87 56.5 18.57L56.89 16.155C57.23 16.485 57.795 16.77 58.585 17.01C59.385 17.25 60.2 17.37 61.03 17.37C61.63 17.37 62.04 17.295 62.26 17.145C62.49 16.995 62.605 16.785 62.605 16.515C62.605 16.255 62.405 16.025 62.005 15.825C61.605 15.615 60.955 15.375 60.055 15.105C57.725 14.405 56.56 12.955 56.56 10.755C56.56 9.85501 56.82 9.08501 57.34 8.44501C57.86 7.795 58.525 7.325 59.335 7.035C60.145 6.745 61.05 6.6 62.05 6.6C63.76 6.6 65.02 6.915 65.83 7.545C66.01 7.715 66.1 7.8 66.1 7.8L65.44 9.94501C64.78 9.29501 63.87 8.97001 62.71 8.97001C61.76 8.97001 61.285 9.25001 61.285 9.81001C61.285 9.97001 61.32 10.105 61.39 10.215C61.46 10.315 61.575 10.405 61.735 10.485C61.905 10.555 62.07 10.615 62.23 10.665C62.39 10.705 62.615 10.765 62.905 10.845C63.195 10.915 63.445 10.98 63.655 11.04C64.825 11.43 65.675 11.98 66.205 12.69C66.735 13.4 67 14.285 67 15.345C67 18.425 65.065 19.965 61.195 19.965Z" fill="#0A0600"/>
</svg>
